<svg xmlns="http://www.w3.org/2000/svg" xmlns:xlink="http://www.w3.org/1999/xlink" viewBox="0 0 286.89 654">
  <g id="Layer_1" data-name="Layer 1">
    <image width="625" height="2704" transform="scale(0.24 0.24)" xlink:href="../ai/assets/junctions/median-uturn-intersection-north-south.jpeg"/>
  </g>
  <g id="drawings">
    <circle cx="78.22" cy="331.04" r="12" style="fill: #fcee21"/>
    <line x1="154.39" y1="236.78" x2="78.22" y2="331.04" style="fill: red;stroke: red;stroke-miterlimit: 10;stroke-width: 2px"/>
    <circle cx="102.93" cy="610.97" r="12" style="fill: #fcee21"/>
    <line x1="160.39" y1="610.78" x2="103.93" y2="610.97" style="fill: red;stroke: red;stroke-miterlimit: 10;stroke-width: 2px"/>
    <circle cx="56.28" cy="48.68" r="12" style="fill: #fcee21"/>
    <line x1="153.39" y1="78.78" x2="56.28" y2="48.68" style="fill: red;stroke: red;stroke-miterlimit: 10;stroke-width: 2px"/>
  </g>
  <g id="dynamic_layer">
    <g id="zone5">
      <rect x="154.39" y="198.28" width="126" height="38.5" style="fill: #faaf40;stroke: #231f20;stroke-miterlimit: 10"/>
      <text transform="translate(187.79 226.01) scale(1.08 1)" style="font-size: 27px;fill: #231f20;font-family: OpenSans, Open Sans">662</text>
      <rect x="154.39" y="236.78" width="126" height="38.5" style="fill: #fff;stroke: #231f20;stroke-miterlimit: 10"/>
      <rect x="154.39" y="236.78" width="63" height="38.5" style="fill: #00adee;stroke: #231f20;stroke-miterlimit: 10"/>
      <text transform="translate(167.65 262.65) scale(1.08 1)" style="font-size: 19px;fill: #231f20;font-family: OpenSans, Open Sans">0.41</text>
      <text transform="translate(226.65 262.85) scale(1.08 1)" style="font-size: 19px;fill: #231f20;font-family: OpenSans, Open Sans">V / C</text>
      <text transform="translate(179.41 185.78)" style="font-size: 24px;font-family: OpenSans, Open Sans">Zone 5</text>
    </g>
    <g id="zone2">
      <rect x="160.39" y="572.28" width="126" height="38.5" style="fill: #faaf40;stroke: #231f20;stroke-miterlimit: 10"/>
      <text transform="translate(193.79 600.01) scale(1.08 1)" style="font-size: 27px;fill: #231f20;font-family: OpenSans, Open Sans">662</text>
      <rect x="160.39" y="610.78" width="126" height="38.5" style="fill: #fff;stroke: #231f20;stroke-miterlimit: 10"/>
      <rect x="160.39" y="610.78" width="63" height="38.5" style="fill: #00adee;stroke: #231f20;stroke-miterlimit: 10"/>
      <text transform="translate(173.65 636.65) scale(1.08 1)" style="font-size: 19px;fill: #231f20;font-family: OpenSans, Open Sans">0.41</text>
      <text transform="translate(232.65 636.85) scale(1.08 1)" style="font-size: 19px;fill: #231f20;font-family: OpenSans, Open Sans">V / C</text>
      <text transform="translate(185.41 559.78)" style="font-size: 24px;font-family: OpenSans, Open Sans">Zone 2</text>
    </g>
    <g id="zone1">
      <rect x="153.39" y="40.28" width="126" height="38.5" style="fill: #faaf40;stroke: #231f20;stroke-miterlimit: 10"/>
      <text transform="translate(186.79 68.01) scale(1.08 1)" style="font-size: 27px;fill: #231f20;font-family: OpenSans, Open Sans">662</text>
      <rect x="153.39" y="78.78" width="126" height="38.5" style="fill: #fff;stroke: #231f20;stroke-miterlimit: 10"/>
      <rect x="153.39" y="78.78" width="63" height="38.5" style="fill: #00adee;stroke: #231f20;stroke-miterlimit: 10"/>
      <text transform="translate(166.65 104.65) scale(1.08 1)" style="font-size: 19px;fill: #231f20;font-family: OpenSans, Open Sans">0.41</text>
      <text transform="translate(225.65 104.85) scale(1.08 1)" style="font-size: 19px;fill: #231f20;font-family: OpenSans, Open Sans">V / C</text>
      <text transform="translate(178.41 27.78)" style="font-size: 24px;font-family: OpenSans, Open Sans">Zone 1</text>
    </g>
  </g>
</svg>
