<svg xmlns="http://www.w3.org/2000/svg" xmlns:xlink="http://www.w3.org/1999/xlink" viewBox="0 0 652 342.48">
  <g id="Layer_1" data-name="Layer 1">
    <image width="625" height="2704" transform="matrix(0, -0.24, 0.24, 0, 0, 239.14)" xlink:href="../ai/assets/junctions/median-uturn-intersection-north-south.jpeg"/>
  </g>
  <g id="drawings">
    <circle cx="41.07" cy="187.48" r="12" style="fill: #fcee21"/>
    <line x1="39.81" y1="264.98" x2="42.07" y2="187.48" style="fill: red;stroke: red;stroke-miterlimit: 10;stroke-width: 2px"/>
    <circle cx="615.64" cy="136.82" r="12" style="fill: #fcee21"/>
    <line x1="572.81" y1="71.57" x2="615.64" y2="136.82" style="fill: red;stroke: red;stroke-miterlimit: 10;stroke-width: 2px"/>
    <circle cx="329.35" cy="173.75" r="12" style="fill: #fcee21"/>
    <line x1="389.81" y1="302.57" x2="330.35" y2="173.75" style="fill: red;stroke: red;stroke-miterlimit: 10;stroke-width: 2px"/>
  </g>
  <g id="dynamic_layer">
    <g id="zone3">
      <rect x="446.81" y="33.07" width="126" height="38.5" style="stroke: #231f20;stroke-miterlimit: 10"/>
      <text transform="translate(480.21 60.8) scale(1.08 1)" style="font-size: 27px;fill: #231f20;font-family: OpenSans, Open Sans">662</text>
      <rect x="446.81" y="71.57" width="126" height="38.5" style="fill: #fff;stroke: #231f20;stroke-miterlimit: 10"/>
      <rect x="446.81" y="71.57" width="63" height="38.5" style="stroke: #231f20;stroke-miterlimit: 10"/>
      <text transform="translate(460.06 97.43) scale(1.08 1)" style="font-size: 19px;fill: #231f20;font-family: OpenSans, Open Sans">0.41</text>
      <text transform="translate(519.07 97.64) scale(1.08 1)" style="font-size: 19px;fill: #231f20;font-family: OpenSans, Open Sans">V / C</text>
      <text transform="translate(471.83 20.57)" style="font-size: 24px;font-family: OpenSans, Open Sans">Zone 3</text>
    </g>
    <g id="zone4">
      <rect x="39.81" y="264.98" width="126" height="38.5" style="stroke: #231f20;stroke-miterlimit: 10"/>
      <text transform="translate(73.21 292.71) scale(1.08 1)" style="font-size: 27px;fill: #231f20;font-family: OpenSans, Open Sans">662</text>
      <rect x="39.81" y="303.48" width="126" height="38.5" style="fill: #fff;stroke: #231f20;stroke-miterlimit: 10"/>
      <rect x="39.81" y="303.48" width="63" height="38.5" style="stroke: #231f20;stroke-miterlimit: 10"/>
      <text transform="translate(53.06 329.34) scale(1.08 1)" style="font-size: 19px;fill: #231f20;font-family: OpenSans, Open Sans">0.41</text>
      <text transform="translate(112.07 329.55) scale(1.08 1)" style="font-size: 19px;fill: #231f20;font-family: OpenSans, Open Sans">V / C</text>
      <text transform="translate(64.83 252.48)" style="font-size: 24px;font-family: OpenSans, Open Sans">Zone 4</text>
    </g>
    <g id="zone5">
      <rect x="389.81" y="264.07" width="126" height="38.5" style="stroke: #231f20;stroke-miterlimit: 10"/>
      <text transform="translate(423.21 291.8) scale(1.08 1)" style="font-size: 27px;fill: #231f20;font-family: OpenSans, Open Sans">662</text>
      <rect x="389.81" y="302.57" width="126" height="38.5" style="fill: #fff;stroke: #231f20;stroke-miterlimit: 10"/>
      <rect x="389.81" y="302.57" width="63" height="38.5" style="stroke: #231f20;stroke-miterlimit: 10"/>
      <text transform="translate(403.06 328.43) scale(1.08 1)" style="font-size: 19px;fill: #231f20;font-family: OpenSans, Open Sans">0.41</text>
      <text transform="translate(462.07 328.64) scale(1.08 1)" style="font-size: 19px;fill: #231f20;font-family: OpenSans, Open Sans">V / C</text>
      <text transform="translate(414.83 251.57)" style="font-size: 24px;font-family: OpenSans, Open Sans">Zone 5</text>
    </g>
  </g>
</svg>
