<svg xmlns="http://www.w3.org/2000/svg" xmlns:xlink="http://www.w3.org/1999/xlink" viewBox="0 0 830.05 739.81">
  <g id="Layer_1" data-name="Layer 1">
    <image width="1650" height="1757" transform="translate(0 739.79) rotate(-90) scale(0.43)" xlink:href="../ai/assets/junctions/quadrant-roadway-intersection-north-west.jpeg"/>
  </g>
  <g id="drawings">
    <circle cx="130.81" cy="186.48" r="12" style="fill: #fcee21"/>
    <line x1="132.55" y1="114.98" x2="130.81" y2="186.48" style="fill: red;stroke: red;stroke-miterlimit: 10;stroke-width: 2px"/>
    <circle cx="626.38" cy="641.82" r="12" style="fill: #fcee21"/>
    <line x1="703.55" y1="655.57" x2="626.38" y2="641.82" style="fill: red;stroke: red;stroke-miterlimit: 10;stroke-width: 2px"/>
    <circle cx="643.04" cy="169.65" r="12" style="fill: #fcee21"/>
    <line x1="563.55" y1="71.57" x2="643.04" y2="169.65" style="fill: red;stroke: red;stroke-miterlimit: 10;stroke-width: 2px"/>
  </g>
  <g id="dynamic_layer">
    <g id="zone2">
      <rect x="703.55" y="617.07" width="126" height="38.5" style="fill: #faaf40;stroke: #231f20;stroke-miterlimit: 10"/>
      <text transform="translate(736.95 644.8) scale(1.08 1)" style="font-size: 27px;fill: #231f20;font-family: OpenSans, Open Sans">662</text>
      <rect x="703.55" y="655.57" width="126" height="38.5" style="fill: #fff;stroke: #231f20;stroke-miterlimit: 10"/>
      <rect x="703.55" y="655.57" width="63" height="38.5" style="fill: #00adee;stroke: #231f20;stroke-miterlimit: 10"/>
      <text transform="translate(716.81 681.43) scale(1.08 1)" style="font-size: 19px;fill: #231f20;font-family: OpenSans, Open Sans">0.41</text>
      <text transform="translate(775.81 681.64) scale(1.08 1)" style="font-size: 19px;fill: #231f20;font-family: OpenSans, Open Sans">V / C</text>
      <text transform="translate(728.57 604.57)" style="font-size: 24px;font-family: OpenSans, Open Sans">Zone 2</text>
    </g>
    <g id="zone4">
      <rect x="69.55" y="37.98" width="126" height="38.5" style="fill: #faaf40;stroke: #231f20;stroke-miterlimit: 10"/>
      <text transform="translate(102.95 65.71) scale(1.08 1)" style="font-size: 27px;fill: #231f20;font-family: OpenSans, Open Sans">662</text>
      <rect x="69.55" y="76.48" width="126" height="38.5" style="fill: #fff;stroke: #231f20;stroke-miterlimit: 10"/>
      <rect x="69.55" y="76.48" width="63" height="38.5" style="fill: #00adee;stroke: #231f20;stroke-miterlimit: 10"/>
      <text transform="translate(82.81 102.34) scale(1.08 1)" style="font-size: 19px;fill: #231f20;font-family: OpenSans, Open Sans">0.41</text>
      <text transform="translate(141.81 102.55) scale(1.08 1)" style="font-size: 19px;fill: #231f20;font-family: OpenSans, Open Sans">V / C</text>
      <text transform="translate(94.57 25.48)" style="font-size: 24px;font-family: OpenSans, Open Sans">Zone 4</text>
    </g>
    <g id="zone5">
      <rect x="437.55" y="33.07" width="126" height="38.5" style="fill: #faaf40;stroke: #231f20;stroke-miterlimit: 10"/>
      <text transform="translate(470.95 60.8) scale(1.08 1)" style="font-size: 27px;fill: #231f20;font-family: OpenSans, Open Sans">662</text>
      <rect x="437.55" y="71.57" width="126" height="38.5" style="fill: #fff;stroke: #231f20;stroke-miterlimit: 10"/>
      <rect x="437.55" y="71.57" width="63" height="38.5" style="fill: #00adee;stroke: #231f20;stroke-miterlimit: 10"/>
      <text transform="translate(450.81 97.43) scale(1.08 1)" style="font-size: 19px;fill: #231f20;font-family: OpenSans, Open Sans">0.41</text>
      <text transform="translate(509.81 97.64) scale(1.08 1)" style="font-size: 19px;fill: #231f20;font-family: OpenSans, Open Sans">V / C</text>
      <text transform="translate(462.57 20.57)" style="font-size: 24px;font-family: OpenSans, Open Sans">Zone 5</text>
    </g>
  </g>
</svg>
